<svg xmlns="http://www.w3.org/2000/svg" xmlns:xlink="http://www.w3.org/1999/xlink" version="1.1" id="Layer_1" x="0px" y="0px" viewBox="0 0 392.9 82.5" enable-background="new 0 0 392.9 82.5" xml:space="preserve">
<g>
	<g>
		<path fill="#FFFFFF" d="M104.1,36.4c0.5-0.1,0.9,0,1.2,0.2c0.2,0.1,0.2,0.3,0.2,0.4c-0.7,4.7-1.1,3.7,0,8.2c0.1,0.4-1.2,0.5-1.4,0    c-0.9-2.1-2.7-5.8-1.4-8.2C102.9,36.7,103.6,36.5,104.1,36.4z"/>
		<path fill="#FFFFFF" d="M96.5,55.9c-0.6,0-0.8-0.1-0.8-0.4c0.3-3,3.9-5.9,5.9-7.4c0.6-0.5-0.3-1.7-1-1c-3,3.6-12.7,8.6-17.2,11.1    c-0.9,0.5-5.8,2.5-6.8,0.6c-0.9-1.9,2-5.9,2.7-6.8c2.7-3.3,5.6-6.6,9.2-9c2.1-1.4,3.9-2.1,4.9-4.7c0.2-0.5,0.3-1.3-0.4-1.2    c-9,0.5-23.1,12.3-30.5,16.4c-0.3,0.1-0.6,0.1-0.4-0.2c1.4-2.7,2.9-5.5,4.3-8.2c4.1-9,1.4-16.7-9.6-14.9c-0.2,0-0.5-0.2-0.2-0.4    c2.7-2.6,5-4.2,7-7.8C70.1,10.2,56.5-0.3,40.5,0C35,0.2,28.4,2.2,24.6,7.2c-0.6,0.8-1,1.8-1,2.9c0,0.2,0.2,1.2,0.7,0.9    c4.6-2.7,8.6-6,14.9-7.2c10.7-2,26.1,7.3,21.1,18c-3.1,6.6-11.7,8.8-18.6,11.7c-11.3,4.7-21.4,12-30.6,19.4    c-3.2,2.6-14,12.8-10.3,18.2c4.2,6.2,15.6,0.1,19.1-3C29.2,59.6,38.4,51,47,40.7c2-2.4,6.8-10.7,14.1-8c2.9,1.1,3.1,5,2,8.4    c-1.2,4.1-3.5,8.2-5.9,11.3c-1.2,1.6-3.5,2.2-4.5,4.1c-0.6,1.3,0.1,1.9,1,2.3c2.4,0.9,5.2-0.8,6.8-1.6c5.3-2.8,11.1-6,16.4-9.2    c0.5-0.3,1.2,0.2,0.8,0.6c-2.2,2.8-7,9.3-3.9,11.7c5.9,3.5,15.6-5,19.9-7c0.3-0.1,0.5,0,0.4,0.2c-0.3,1.2-1.4,2.5-1,3.5    c1.6,3.3,6.2-1.1,8.6-2.2c0.4-0.1,0.9-0.8,0.4-0.7C100.1,54.4,99.2,55.7,96.5,55.9z M15.9,65.7c-2.3,1.7-7.6,5.8-11.8,4    c-0.2-0.1-0.6-0.4-0.5-0.7c1.1-4,4.9-7.7,7.6-10.3c7.4-7.3,22.9-18.5,32.4-22c2-0.6,4.7-0.3,2.6,1.5    C39.1,43.8,23.8,59.9,15.9,65.7z"/>
		<path fill="#FFFFFF" d="M247.9,13.9c-0.3-1-1.1-2.2-4-1.3c-12.1,4.3-18.8,9.8-25.9,18.5c-2.5,2.5-12.7,18.2-16.7,20.8    c-3.9,2.5-15.4,7.7-20.1,5.1c-0.5-0.3-0.6-1.3,0-1.6c3.1-1.8,14.1-6.4,12.3-10.8c-1.3-2.5-5.8-2.1-8.2-0.8    c-5.2,2.7-5.5,10.7-12.1,11.9c-1,0.2-1.9-1-2.1-2.5c-0.5-2.9,3.4-4.4,4-7.1c-2.1-0.9-2.9,0.7-4.5,1c-2,0.4-2.3-2.1-5.5-0.8    c-8.8,3.6-13.2,14.7-21.7,12.5c-0.9-0.3-0.8-1.3-0.4-1.7c2.8-2.8,6.1-4.9,6-10.6c0-0.6-0.4-0.7-0.7-0.8c-2.7-0.7-6.7,1.4-6.4,0.6    c0.8-2.4,6.4-6.3,9.2-8.4c7.2-5.3,14.5-10.7,20.8-17c0.6-0.7-0.2-1.4-0.7-1.6c-3.5-1.2-14,9.1-16.2,11.3    c-8.1,8.1-17.5,16.8-27.3,23c-2.2,1.4-16.9,11.4-23.4,8.9c-3.3-1.6,4.6-10.9,7.6-11.9c4.4-1.4,8.2,2,9.7-2.5    c0.2-0.7,0.2-1.3-0.4-1.8c-6.3-4.7-23.3,12.1-19.3,15.9c8.2,6.4,23.7-6.7,30.2-10.1c0.5-0.2,0.6,0.2,0.3,0.7    c-1.5,2.1-3,4.2-4.5,6.3c-0.2,0.3,0,0.7,0.4,0.6c4.2-1.1,6-7.2,9.2-9.6c2-1.5,4.1-2.3,6.8-2.5c2-0.2,1.8,1.1,1.4,1.8    c-1.6,2.9-5.3,5.5-5.1,9.2c0.1,1.3,0.9,2.2,2.9,2.2c6-0.6,6.7-2.3,10.4-4.1c0.5,1.4,0.8,2.3,1.8,2.7c4.9,1.1,8.3-1.9,11.1-4.1    c0.6-0.5,1.9,1.4,3.9,2c4.2,1.2,5.9-1.8,8-3.3c-0.5,1.6-0.9,3.1,2.2,5c4.6,2.8,16.3-4.2,19.9-5.5c0.3-0.2,0.4,0,0.4,0.2    c-0.8,3.3-2.6,5.3-0.8,7.2c6.6,6,20.3,0.5,24.4-6.3c0.1-0.2-0.2-0.5-0.6-0.2c-3.1,1.8-16.4,11.2-20.3,4.1    c-2.6-4.9,8.5-9.8,11.5-11.7c9.8-6.2,19.4-13.3,27.5-21.4C245,23.3,248.9,18.2,247.9,13.9z M188,45.2c1-0.5,1.9-0.3,2.3,0.2    c0.4,0.6,0.6,0.8,0.2,1.7c-1.3,2.4-4.7,5.1-7.6,5.7c-0.2,0.1-0.6,0.1-0.9-0.4C180.7,49.3,185.6,46.3,188,45.2z M158.4,55.2    c-0.1-2.2,5.4-5.6,8.2-7.4c1-0.7,2.8,0.3,2.5,1.2C168.3,50.9,158.6,62.3,158.4,55.2z M212.4,46.2c-1.1-2.8,3.8-8.1,5.5-9.9    c7-7.9,13.7-14.2,23.6-19.3c1-0.5,2.3-0.2,2.3,0.6C244.9,23,219,45.1,212.4,46.2z"/>
	</g>
	<g>
		<path fill="#FFFFFF" d="M369.9,32.4c0.6-3.2,1-6,0.1-8.7c-2.2-6.5-9.2-11-17.6-10.8c0.4-1.1,2.4-2.2,3.3-2.9    c0.8-0.5,0-2.4-1.2-1.2c-5.5,5.4-30.7,0.2-33.6,7.4c-1.2,2.9,0.4,6.3,2.4,8.5c-3.1,1.1-15.6,6.3-20.3,9.1    c-7.9,4.3-11.1,9.8-14.2,10c1.6-9.3,9.7-20.5,7-19.9c-2.7,0.4-5.4,2-7.4,3.2c-5.7,3.3-9.9,7-15.6,10.3c-1.6,1-4,2.6-6.2,2.9    c0-0.1,0-0.1,0-0.2c3-5.1,6.8-9.4,9.4-15.1c0.8-1.7,3.4-7,0.2-6.8c-8.8,1-17.8,13.2-23.1,18.6c-1.1,1.3,0.8,2.8,1.6,1.4    c1.5-1.9,3-3.8,4.5-5.7c3.6-4.4,9-9.3,14.5-11.7c1.6,2.4-4,9.9-5.1,11.7c-3.3,5.2-6.7,10.4-10,15.6c-4.1,5.2-8.7,8.2-11.3,15.4    c-0.3,1.1,0,2.5,1,1.6c4-3.4,5.8-7.8,9-12.1c2.2-2.9,5.7-5.1,8.6-7.4c7.7-5.9,20.4-15.3,25.4-17.2c1.2,0.7-4.3,17.8-9.8,20.6    c-7.5,4.9-17.8,15.4-20.5,19.3c-2.7,3.6-5.6,8-5.9,11.2c-0.1,1.3-0.3,3.1,0.6,2.8c12.1-3.2,20.9-18.3,24.6-25.7    c2.5-4.3,5.5-5.7,8.4-8.7c10-8.8,15.2-11.8,28.5-18.1c2.1-1,5.4-2.4,7.5-3.4c2.8,2.5,6,4.8,13.6,6.8c8.6,2.5,22.1,2.9,28.6,1.5    c-1.3,6.6-15.5,23.5-22.4,24c-0.1,0-0.1,0-0.2,0c-2.5,0.4-0.1-6.1,7.8-10.4c0.6-0.3,0.9-0.8,0.4-1c-3.6-1.1-13,10.3-21.5,10.6    c-1.9,0.1,5.5-6.6,3.9-10.5c-0.4-0.6-0.7-1.4-1.7-1.4c-6.9,0.5-8,8.3-14.7,9.4c-1.3,0-2.1-0.8-2.3-1.8c-0.6-3.6,2.8-5.1,4.1-7.6    c-0.2-0.1-0.4-0.3-0.6-0.4c-1.9-0.7-2.7,1-4.1,1.2c-1.7,0.2-2.5-1.4-4.1-1.2c-3.2,0.5-13.8,9.4-12.3,11.9c3.3,5.1,9.8,0,12.5-2.3    c1.3-1,3.3,1.4,5.1,1.8c5.3,0.8,8.1-5.3,11.7-7c1.4-0.6,2.3,0.8,1.6,2c-1.8,2.4-3.5,4.8-5.3,7.2c-0.3,0.5-0.3,1,0,1.2    c3.2,1.7,13.1-3.6,15.8-5.1c2.1-0.9-1.3,6.9,2,6.8c10.9-0.8,23.8-18.8,27.1-27.9c5.8-1.5,14.7-2.8,22.6-2.8c0.5,0,0.9-0.8,0.4-1    C390.2,29.7,376.2,30.6,369.9,32.4z M260.3,77.7c-0.4,0.3-1.2,0.8-1,0c1.3-6.7,16.5-22.5,21.7-26.4    C279.8,55.8,267,73.4,260.3,77.7z M305.3,57.5c-0.8,0.4-1.3,0.1-1.6-0.4c-1.3-3.7,5.3-8.4,7.8-9.2c0.9-0.3,3.2,0.4,2.5,1.6    C312.1,52.8,308.7,55.7,305.3,57.5z M325.3,23.4c-6-8.9,6.2-9.8,14.4-9.9c1.1,0,2.2,0,3.3,0c0.8,0,0.6,0.4,0.2,0.6    C337.2,17.2,326.2,24.8,325.3,23.4z M367.2,32.7c-8.7,2.8-28.2-1.6-33.8-3.7c-3.6-1.2-6-3.2-6.4-3.6c2.5-1.2,7.9-5.6,12.6-7.7    c2.6-1.1,6-3.1,9.1-3C368.7,14.6,367.9,32.2,367.2,32.7z"/>
	</g>
</g>
</svg>