<svg version="1.1" id="soundcloud" xmlns="http://www.w3.org/2000/svg" xmlns:xlink="http://www.w3.org/1999/xlink" x="0px" y="0px"
	 viewBox="0 0 159.8 70.1" enable-background="new 0 0 159.8 70.1" xml:space="preserve">
<path fill="#FFFFFF" d="M26.7,34.1c-0.6,0-1,0.5-1.1,1.1l-1.3,16.4l1.3,17.2c0,0.6,0.5,1.1,1.1,1.1c0.6,0,1-0.5,1.1-1.1l1.5-17.2
	l-1.5-16.4C27.7,34.5,27.3,34.1,26.7,34.1z M39.6,17.4c-0.7,0-1.3,0.6-1.3,1.3c0,0-1.2,32.8-1.2,32.8l1.2,17.1
	c0,0.7,0.6,1.3,1.3,1.3c0.7,0,1.3-0.6,1.3-1.3l1.3-17.1L41,18.8C40.9,18,40.3,17.4,39.6,17.4z M20.3,32.9c-0.5,0-0.9,0.4-0.9,0.9
	L18,51.5l1.4,17.1c0,0.5,0.4,0.9,0.9,0.9c0.5,0,0.9-0.4,0.9-0.9l1.6-17.1l-1.6-17.7C21.2,33.3,20.8,32.9,20.3,32.9z M33.1,23.6
	c-0.6,0-1.2,0.5-1.2,1.2l-1.3,26.7l1.3,17.2c0,0.7,0.6,1.2,1.2,1.2c0.6,0,1.2-0.5,1.2-1.2v0l1.4-17.2l-1.4-26.7
	C34.3,24.2,33.8,23.6,33.1,23.6z M14,33.5c-0.4,0-0.8,0.3-0.8,0.8c0,0-1.5,17.2-1.5,17.2l1.5,16.6c0,0.5,0.4,0.8,0.8,0.8
	c0.4,0,0.8-0.3,0.8-0.8l1.7-16.6l-1.7-17.2C14.7,33.9,14.4,33.5,14,33.5z M7.7,36.4c-0.3,0-0.6,0.3-0.7,0.7c0,0-1.6,14.5-1.6,14.5
	L7,65.7c0,0.4,0.3,0.7,0.7,0.7c0.3,0,0.6-0.3,0.7-0.7l1.8-14.2L8.4,37C8.3,36.6,8.1,36.4,7.7,36.4z M1.8,41.9
	c-0.3,0-0.6,0.3-0.6,0.6l-1.2,9l1.2,8.8c0,0.4,0.3,0.6,0.6,0.6c0.3,0,0.6-0.3,0.6-0.6l1.4-8.8l-1.4-9C2.4,42.2,2.1,41.9,1.8,41.9z
	 M79.5,4.7c-1.2,0-2.2,1-2.2,2.2l-0.9,44.7l0.9,16.2c0,1.2,1,2.2,2.2,2.2c1.2,0,2.1-1,2.2-2.2v0l1-16.2l-1-44.7
	C81.6,5.6,80.7,4.7,79.5,4.7z M140.1,30.4c-2.7,0-5.3,0.6-7.6,1.5C130.9,14,116.1,0,98,0c-4.4,0-8.8,0.9-12.6,2.4
	c-1.5,0.6-1.9,1.2-1.9,2.3v63c0,1.2,0.9,2.2,2.1,2.3c0,0,54.1,0,54.5,0c10.9,0,19.7-8.9,19.7-19.8C159.8,39.3,151,30.4,140.1,30.4z
	 M72.8,8.5c-1.1,0-2,0.9-2,2l-0.8,41c0,0,0.8,16.5,0.8,16.5c0,1.1,0.9,2,2,2s2-0.9,2-2l0.9-16.5l-0.9-41C74.8,9.4,73.9,8.5,72.8,8.5
	z M46.1,14.5c-0.8,0-1.5,0.7-1.5,1.5c0,0-1.1,35.5-1.1,35.5l1.1,16.9c0,0.8,0.7,1.5,1.5,1.5c0.8,0,1.5-0.7,1.5-1.5l1.2-16.9L47.6,16
	C47.6,15.2,46.9,14.5,46.1,14.5z M52.7,13.2c-0.9,0-1.6,0.7-1.6,1.6l-1,36.7l1,16.8c0,0.9,0.7,1.6,1.6,1.6s1.6-0.7,1.6-1.6v0
	l1.1-16.8l-1.1-36.7C54.3,13.9,53.6,13.2,52.7,13.2z M66.1,15.2c-1,0-1.9,0.8-1.9,1.9l-0.8,34.4l0.8,16.6c0,1.1,0.9,1.9,1.9,1.9
	c1,0,1.9-0.8,1.9-1.9v0l0.9-16.6l-0.9-34.5C67.9,16,67.1,15.2,66.1,15.2z M59.4,14c-1,0-1.7,0.8-1.8,1.8l-0.9,35.8l0.9,16.7
	c0,1,0.8,1.8,1.8,1.8c1,0,1.7-0.8,1.8-1.8v0l1-16.7l-1-35.8C61.1,14.8,60.3,14,59.4,14z"/>
</svg>
