<svg version="1.1" id="youtube" xmlns="http://www.w3.org/2000/svg" xmlns:xlink="http://www.w3.org/1999/xlink" x="0px" y="0px"
	 viewBox="0 0 223.6 159.3" enable-background="new 0 0 223.6 159.3" xml:space="preserve">
<path fill="#FFFFFF" d="M219.7,25.7c-2.3-12.2-12.4-21.3-24.1-22.4C167.7,1.5,139.7,0,111.7,0C83.8,0,55.9,1.4,28,3.2
	C16.3,4.3,6.2,13.4,3.9,25.6C1.3,43.3,0,61.1,0,78.9s1.3,35.6,3.9,53.3c2.3,12.3,12.4,22.4,24.2,23.5c27.9,1.8,55.8,3.6,83.7,3.6
	c27.9,0,55.9-1.6,83.8-3.4c11.7-1.1,21.8-11.6,24.1-23.8c2.6-17.6,3.9-35.4,3.9-53.2C223.6,61.1,222.3,43.3,219.7,25.7z M86.4,111
	V46l60.5,32.5L86.4,111z"/>
</svg>
